<svg width="86" height="46" viewBox="0 0 86 46" fill="none" xmlns="http://www.w3.org/2000/svg">
<g clip-path="url(#clip0_18_111)">
<g style="mix-blend-mode:hard-light">
<path fill-rule="evenodd" clip-rule="evenodd" d="M23 4.89362C18.197 4.89362 13.5931 6.79912 10.1961 10.1961C6.79912 13.5931 4.89362 18.197 4.89362 23C4.89362 27.803 6.79912 32.4069 10.1961 35.8039C13.5931 39.2009 18.197 41.1064 23 41.1064H25.1978C19.8313 36.8962 16.384 30.3514 16.384 23C16.384 15.6486 19.8313 9.1038 25.1978 4.89362H23ZM39.6383 0.0013755V0H39.384H23C16.9 0 11.0512 2.42045 6.7358 6.7358C2.42045 11.0512 0 16.9 0 23C0 29.1 2.42045 34.9488 6.7358 39.2642C11.0512 43.5795 16.9 46 23 46H39.384H39.6383V45.9986C42.5764 45.9668 45.3822 45.3844 47.9574 44.3496V46H62.1489C68.2489 46 74.0978 43.5795 78.4132 39.2642C82.7285 34.9488 85.1489 29.1 85.1489 23C85.1489 16.9 82.7285 11.0512 78.4132 6.7358C74.0978 2.42045 68.2489 0 62.1489 0H47.9574V1.65045C45.3822 0.615643 42.5764 0.0331817 39.6383 0.0013755ZM47.9574 7.04716C45.4056 5.67319 42.4861 4.89362 39.384 4.89362C29.3822 4.89362 21.2776 12.9981 21.2776 23C21.2776 33.0019 29.3822 41.1064 39.384 41.1064C42.4861 41.1064 45.4056 40.3268 47.9574 38.9528V7.04716ZM52.8511 35.1048V10.8952C55.7355 14.1023 57.4904 18.3458 57.4904 23C57.4904 27.6542 55.7355 31.8977 52.8511 35.1048ZM53.5703 41.1064C58.9369 36.8962 62.384 30.3514 62.384 23C62.384 15.6486 58.9369 9.1038 53.5703 4.89362H62.1489C66.9519 4.89362 71.5558 6.79912 74.9528 10.1961C78.3498 13.5931 80.2553 18.197 80.2553 23C80.2553 27.803 78.3498 32.4069 74.9528 35.8039C71.5558 39.2009 66.9519 41.1064 62.1489 41.1064H53.5703Z" fill="black"/>
</g>
</g>
<defs>
<clipPath id="clip0_18_111">
<rect width="86" height="46" fill="white"/>
</clipPath>
</defs>
</svg>
