<svg width="579" height="579" viewBox="0 0 579 579" fill="none" xmlns="http://www.w3.org/2000/svg">
<circle cx="289.628" cy="289.804" r="289" fill="white"/>
<path d="M348.505 86.7148C424.712 86.715 486.539 148.543 486.539 224.784V348.681C486.539 424.887 424.711 486.715 348.47 486.715H224.608C148.367 486.715 86.5391 424.887 86.5391 348.646V224.784C86.5391 148.543 148.367 86.7148 224.608 86.7148H348.505ZM184.541 212.283C181.369 219.214 179.645 226.87 179.645 234.974V338.422L184.541 361.076C190.024 373.318 199.851 383.18 212.093 388.697C219.024 391.835 226.714 393.594 234.817 393.594H338.266C346.369 393.594 354.058 391.835 360.989 388.697L286.541 314.249L258.955 286.697L184.541 212.283ZM234.817 179.801C226.714 179.801 219.058 181.525 212.127 184.697L314.127 286.697L388.541 361.076C391.713 354.18 393.437 346.491 393.438 338.422V234.974C393.438 226.87 391.713 219.214 388.541 212.283C383.058 200.042 373.196 190.18 360.955 184.697C354.024 181.525 346.369 179.801 338.266 179.801H234.817Z" fill="black"/>
</svg>
