<svg width="579" height="579" viewBox="0 0 579 579" fill="none" xmlns="http://www.w3.org/2000/svg">
<circle cx="289.306" cy="289.804" r="289" fill="black"/>
<path d="M351.271 89.8037C427.478 89.8039 489.306 151.632 489.306 227.873V351.77C489.306 427.976 427.478 489.804 351.236 489.804H227.375C151.134 489.804 89.3057 427.976 89.3057 351.734V227.873C89.3057 151.632 151.134 89.8037 227.375 89.8037H351.271ZM187.308 215.372C184.135 222.303 182.411 229.959 182.411 238.062V341.511L187.308 364.165C192.79 376.406 202.618 386.269 214.859 391.786C221.79 394.924 229.481 396.683 237.584 396.683H341.032C349.136 396.683 356.825 394.924 363.756 391.786L289.308 317.338L261.722 289.786L187.308 215.372ZM237.584 182.89C229.481 182.89 221.825 184.614 214.894 187.786L316.894 289.786L391.308 364.165C394.48 357.269 396.204 349.579 396.204 341.511V238.062C396.204 229.959 394.48 222.303 391.308 215.372C385.825 203.131 375.963 193.269 363.722 187.786C356.791 184.614 349.136 182.89 341.032 182.89H237.584Z" fill="white"/>
</svg>
