<svg width="285" height="46" viewBox="0 0 285 46" fill="none" xmlns="http://www.w3.org/2000/svg">
<g clip-path="url(#clip0_18_97)">
<g style="mix-blend-mode:hard-light">
<path fill-rule="evenodd" clip-rule="evenodd" d="M23 4.89362C18.197 4.89362 13.5931 6.79912 10.1961 10.1961C6.79912 13.5931 4.89362 18.197 4.89362 23C4.89362 27.803 6.79912 32.4069 10.1961 35.8039C13.5931 39.2009 18.197 41.1064 23 41.1064H25.1978C19.8313 36.8962 16.384 30.3514 16.384 23C16.384 15.6486 19.8313 9.1038 25.1978 4.89362H23ZM39.6383 0.0013755V0H39.384H23C16.9 0 11.0512 2.42045 6.7358 6.7358C2.42045 11.0512 0 16.9 0 23C0 29.1 2.42045 34.9488 6.7358 39.2642C11.0512 43.5795 16.9 46 23 46H39.384H39.6383V45.9986C42.5764 45.9668 45.3822 45.3844 47.9574 44.3496V46H62.1489C68.2489 46 74.0978 43.5795 78.4132 39.2642C82.7285 34.9488 85.1489 29.1 85.1489 23C85.1489 16.9 82.7285 11.0512 78.4132 6.7358C74.0978 2.42045 68.2489 0 62.1489 0H47.9574V1.65045C45.3822 0.615643 42.5764 0.0331817 39.6383 0.0013755ZM47.9574 7.04716C45.4056 5.67319 42.4861 4.89362 39.384 4.89362C29.3822 4.89362 21.2776 12.9981 21.2776 23C21.2776 33.0019 29.3822 41.1064 39.384 41.1064C42.4861 41.1064 45.4056 40.3268 47.9574 38.9528V7.04716ZM52.8511 35.1048V10.8952C55.7355 14.1023 57.4904 18.3458 57.4904 23C57.4904 27.6542 55.7355 31.8977 52.8511 35.1048ZM53.5703 41.1064C58.9369 36.8962 62.384 30.3514 62.384 23C62.384 15.6486 58.9369 9.1038 53.5703 4.89362H62.1489C66.9519 4.89362 71.5558 6.79912 74.9528 10.1961C78.3498 13.5931 80.2553 18.197 80.2553 23C80.2553 27.803 78.3498 32.4069 74.9528 35.8039C71.5558 39.2009 66.9519 41.1064 62.1489 41.1064H53.5703Z" fill="black"/>
</g>
<path fill-rule="evenodd" clip-rule="evenodd" d="M174.544 45.3618L174.444 41.2125V41.1805C173.145 42.478 171.64 43.5369 169.985 44.2979C168.073 45.1778 166.008 45.6367 163.912 45.6367C161.816 45.6367 159.75 45.1778 157.838 44.2979C155.926 43.4184 154.214 42.1408 152.788 40.5572C152.361 40.0832 151.962 39.5843 151.593 39.0637C151.152 39.6332 150.675 40.1752 150.164 40.6862C148.594 42.2557 146.73 43.5007 144.678 44.3502C142.626 45.1996 140.427 45.6367 138.206 45.6367C135.985 45.6367 133.786 45.1996 131.734 44.3502C130.625 43.8913 129.572 43.3171 128.59 42.6386C126.607 43.9554 124.361 44.8688 121.989 45.3179C118.61 45.9579 115.104 45.6307 111.91 44.3716C108.716 43.1122 105.96 40.9689 104.008 38.1882C102.054 35.4054 101 32.115 101 28.7343C101 25.3535 102.054 22.0632 104.008 19.2803C105.96 16.4996 108.716 14.3564 111.91 13.0969C115.104 11.8379 118.61 11.5107 121.989 12.1507C124.361 12.5996 126.607 13.5131 128.59 14.8299C129.572 14.1514 130.625 13.5771 131.734 13.1184C133.786 12.2689 135.985 11.8318 138.206 11.8318C140.427 11.8318 142.626 12.2689 144.678 13.1184C146.73 13.9678 148.594 15.2128 150.164 16.7824C150.675 17.2933 151.152 17.8353 151.593 18.4048C151.962 17.8841 152.361 17.3853 152.788 16.9113C154.214 15.3277 155.926 14.05 157.838 13.1706C159.75 12.2907 161.816 11.8318 163.912 11.8318C166.008 11.8318 168.073 12.2907 169.985 13.1706C171.579 13.9035 173.034 14.9127 174.3 16.1453V0H181.844V22.7026C182.106 21.9412 182.421 21.2067 182.787 20.4993C184.094 17.9655 185.874 15.9835 188.123 14.5532C190.371 13.123 192.907 12.4078 195.727 12.4078C197.363 12.4078 198.855 12.6529 200.205 13.1433C201.555 13.5929 202.74 14.2467 203.763 15.1049C204.661 15.8593 205.418 16.7085 206.031 17.6525V13.082H213.637V45.387H205.971V40.8533C205.264 41.7765 204.385 42.6134 203.333 43.3641C202.229 44.1405 200.982 44.774 199.591 45.2644C198.243 45.7547 196.79 46 195.237 46C192.579 46 190.166 45.2644 187.999 43.7932C185.832 42.3221 184.094 40.3196 182.787 37.7859C182.421 37.0784 182.106 36.344 181.844 35.5826V45.3618H174.544ZM197.323 39.3184C199.08 39.3184 200.635 38.8892 201.983 38.031C203.333 37.1728 204.375 35.9877 205.111 34.4757C205.888 32.9227 206.277 31.145 206.277 29.1426C206.277 27.181 205.888 25.4442 205.111 23.9321C204.375 22.42 203.333 21.2349 201.983 20.3767C200.635 19.5185 199.08 19.0894 197.323 19.0894C195.564 19.0894 194.011 19.5185 192.661 20.3767C191.352 21.2349 190.331 22.42 189.595 23.9321C188.859 25.4442 188.491 27.181 188.491 29.1426C188.491 31.145 188.859 32.9227 189.595 34.4757C190.331 35.9877 191.352 37.1728 192.661 38.031C194.011 38.8892 195.564 39.3184 197.323 39.3184ZM147.581 24.8533C148.091 26.0837 148.353 27.4024 148.353 28.7343C148.353 30.0661 148.091 31.3848 147.581 32.6152C147.07 33.8457 146.323 34.9636 145.382 35.9054C144.439 36.8471 143.32 37.5941 142.089 38.1037C140.858 38.6135 139.538 38.8758 138.206 38.8758C136.874 38.8758 135.554 38.6135 134.323 38.1037C133.092 37.5941 131.973 36.8471 131.031 35.9054C130.089 34.9636 129.341 33.8457 128.831 32.6152C128.322 31.3848 128.059 30.0661 128.059 28.7343C128.059 27.4024 128.322 26.0837 128.831 24.8533C129.341 23.6228 130.089 22.5049 131.031 21.5631C131.973 20.6214 133.092 19.8744 134.323 19.3647C135.554 18.855 136.874 18.5927 138.206 18.5927C139.538 18.5927 140.858 18.855 142.089 19.3647C143.32 19.8744 144.439 20.6214 145.382 21.5631C146.323 22.5049 147.07 23.6228 147.581 24.8533ZM123.816 37.6135C122.86 38.1081 121.82 38.4686 120.73 38.675C118.599 39.0786 116.392 38.8701 114.393 38.0823C112.396 37.2949 110.716 35.9718 109.545 34.3051C108.377 32.6408 107.764 30.7022 107.764 28.7343C107.764 26.7662 108.377 24.8278 109.545 23.1634C110.716 21.4966 112.396 20.1737 114.393 19.3862C116.392 18.5984 118.599 18.39 120.73 18.7935C121.82 18.9999 122.86 19.3604 123.816 19.8549C123.341 20.6225 122.929 21.4286 122.581 22.2659C121.731 24.3167 121.294 26.5146 121.294 28.7343C121.294 30.9539 121.731 33.1518 122.581 35.2026C122.929 36.0399 123.341 36.8459 123.816 37.6135ZM163.912 18.5927C162.809 18.5927 161.708 18.8332 160.666 19.3124C159.623 19.7921 158.651 20.5066 157.816 21.4342C156.98 22.3624 156.3 23.4832 155.832 24.7405C155.362 25.9977 155.118 27.3558 155.118 28.7343C155.118 30.1127 155.362 31.4707 155.832 32.728C156.3 33.9853 156.98 35.106 157.816 36.0343C158.651 36.9619 159.623 37.6763 160.666 38.156C161.708 38.6352 162.809 38.8758 163.912 38.8758C165.014 38.8758 166.115 38.6352 167.158 38.156C168.2 37.6763 169.172 36.9619 170.007 36.0343C170.844 35.106 171.523 33.9853 171.993 32.728C172.461 31.4707 172.706 30.1127 172.706 28.7343C172.706 27.3558 172.461 25.9977 171.993 24.7405C171.523 23.4832 170.844 22.3624 170.007 21.4342C169.172 20.5066 168.2 19.7921 167.158 19.3124C166.115 18.8332 165.014 18.5927 163.912 18.5927Z" fill="black"/>
<path d="M221.33 20.0704V45.3872H228.874V20.0704H238.528V45.3872H246.072V20.0704H253.126V13.0821H246.072V4.86803H238.528V13.0821H228.874V4.86803H221.33V13.0821H214.95V20.0704H221.33Z" fill="black"/>
<path fill-rule="evenodd" clip-rule="evenodd" d="M266.266 46C263.609 46 261.196 45.2644 259.029 43.7932C256.861 42.3221 255.124 40.3196 253.816 37.7859C252.507 35.2521 251.853 32.3711 251.853 29.1426C251.853 25.9141 252.507 23.0331 253.816 20.4993C255.124 17.9655 256.903 15.9835 259.152 14.5532C261.401 13.123 263.936 12.4078 266.757 12.4078C268.393 12.4078 269.885 12.6529 271.234 13.1433C272.584 13.5929 273.77 14.2467 274.792 15.1049C275.69 15.8593 276.446 16.7085 277.061 17.6525V13.082H284.666V45.387H277V40.8533C276.293 41.7765 275.414 42.6134 274.362 43.3641C273.258 44.1406 272.011 44.774 270.621 45.2644C269.272 45.7548 267.82 46 266.266 46ZM268.352 39.3184C270.109 39.3184 271.664 38.8893 273.013 38.031C274.362 37.1728 275.405 35.9877 276.141 34.4757C276.917 32.9227 277.306 31.145 277.306 29.1426C277.306 27.181 276.917 25.4442 276.141 23.9321C275.405 22.42 274.362 21.2349 273.013 20.3767C271.664 19.5185 270.109 19.0894 268.352 19.0894C266.594 19.0894 265.04 19.5185 263.69 20.3767C262.381 21.2349 261.36 22.42 260.624 23.9321C259.888 25.4442 259.52 27.181 259.52 29.1426C259.52 31.145 259.888 32.9227 260.624 34.4757C261.36 35.9877 262.381 37.1728 263.69 38.031C265.04 38.8893 266.594 39.3184 268.352 39.3184Z" fill="black"/>
</g>
<defs>
<clipPath id="clip0_18_97">
<rect width="285" height="46" fill="white"/>
</clipPath>
</defs>
</svg>
