<svg width="1362" height="400" viewBox="0 0 1362 400" fill="none" xmlns="http://www.w3.org/2000/svg">
<g clip-path="url(#clip0_2624_1146)">
<path d="M261.965 0C338.172 0 400 61.828 400 138.069V261.966C400 338.173 338.172 400 261.931 400H138.068C61.8271 400 0 338.172 0 261.931V138.069C0 61.8281 61.8271 0.000169158 138.068 0H261.965ZM98.4824 125.086C95.31 131.982 93.5859 139.672 93.5859 147.741V251.189C93.5859 259.293 95.31 266.948 98.4824 273.879C103.965 286.12 113.827 295.982 126.068 301.465C132.999 304.637 140.654 306.361 148.758 306.361H252.206C260.309 306.361 267.965 304.637 274.896 301.465L172.896 199.465L98.4824 125.086ZM148.275 93.0859C140.172 93.0859 132.516 94.81 125.585 97.9824L227.585 199.982L301.999 274.361C305.171 267.465 306.895 259.776 306.896 251.707V148.259C306.896 140.155 305.171 132.499 301.999 125.568C296.516 113.327 286.654 103.465 274.413 97.9824C267.482 94.8101 259.827 93.086 251.724 93.0859H148.275Z" fill="white"/>
</g>
<path d="M552.166 294.999C535.901 294.999 521.937 292.206 510.272 286.621C498.608 280.87 489.079 273.395 481.686 264.195C474.293 254.831 468.789 244.809 465.175 234.131C461.725 223.287 460 212.773 460 202.587V197.166C460 185.994 461.807 174.987 465.422 164.144C469.036 153.136 474.54 143.197 481.932 134.325C489.49 125.454 498.936 118.389 510.272 113.132C521.772 107.711 535.326 105 550.934 105C567.198 105 581.573 108.039 594.059 114.118C606.545 120.197 616.484 128.657 623.877 139.501C631.435 150.179 635.87 162.747 637.185 177.205H596.523C595.373 169.976 592.745 163.815 588.638 158.722C584.53 153.629 579.191 149.686 572.62 146.893C566.212 144.101 558.984 142.704 550.934 142.704C542.883 142.704 535.737 144.101 529.494 146.893C523.251 149.686 517.994 153.629 513.722 158.722C509.615 163.815 506.411 169.894 504.111 176.958C501.976 183.858 500.908 191.58 500.908 200.123C500.908 208.502 501.976 216.223 504.111 223.287C506.411 230.188 509.697 236.266 513.969 241.523C518.404 246.616 523.826 250.559 530.233 253.352C536.64 255.981 543.951 257.295 552.166 257.295C564.652 257.295 575.166 254.256 583.709 248.177C592.416 242.098 597.673 233.72 599.481 223.041H639.896C638.417 236.184 633.981 248.259 626.588 259.267C619.36 270.11 609.42 278.817 596.77 285.388C584.284 291.796 569.416 294.999 552.166 294.999Z" fill="white"/>
<path d="M712.713 295C701.209 295 690.675 292.221 681.111 286.663C671.546 281.105 663.92 273.609 658.233 264.173C652.675 254.738 649.896 244.333 649.896 232.959C649.896 221.455 652.675 211.051 658.233 201.745C663.92 192.309 671.546 184.813 681.111 179.255C690.675 173.697 701.209 170.918 712.713 170.918C724.346 170.918 734.88 173.697 744.315 179.255C753.88 184.813 761.441 192.309 766.999 201.745C772.686 211.051 775.529 221.455 775.529 232.959C775.529 244.333 772.686 254.738 766.999 264.173C761.441 273.609 753.88 281.105 744.315 286.663C734.88 292.221 724.346 295 712.713 295ZM712.713 264.755C718.529 264.755 723.764 263.333 728.417 260.489C733.199 257.646 736.948 253.833 739.662 249.051C742.505 244.139 743.927 238.775 743.927 232.959C743.927 227.013 742.505 221.649 739.662 216.867C736.948 212.085 733.199 208.272 728.417 205.428C723.764 202.585 718.529 201.163 712.713 201.163C706.897 201.163 701.597 202.585 696.815 205.428C692.162 208.272 688.414 212.085 685.57 216.867C682.856 221.649 681.499 227.013 681.499 232.959C681.499 238.775 682.856 244.139 685.57 249.051C688.414 253.833 692.162 257.646 696.815 260.489C701.597 263.333 706.897 264.755 712.713 264.755Z" fill="white"/>
<path d="M844.885 294.999C834.027 294.999 824.204 292.22 815.415 286.662C806.626 281.104 799.582 273.737 794.282 264.56C789.112 255.254 786.527 244.979 786.527 233.734C786.527 222.489 789.112 212.213 794.282 202.907C799.582 193.601 806.626 186.234 815.415 180.805C824.204 175.247 834.027 172.468 844.885 172.468C851.089 172.468 856.84 173.373 862.14 175.183C867.439 176.992 872.221 179.577 876.487 182.938V105.774H910.221V291.897H881.14V280.458C876.745 284.982 871.446 288.536 865.242 291.121C859.038 293.707 852.252 294.999 844.885 294.999ZM848.762 265.336C854.449 265.336 859.619 263.914 864.272 261.07C868.925 258.227 872.609 254.414 875.323 249.632C878.167 244.849 879.589 239.55 879.589 233.734C879.589 227.917 878.167 222.618 875.323 217.836C872.609 213.053 868.925 209.24 864.272 206.397C859.619 203.553 854.449 202.132 848.762 202.132C843.075 202.132 837.905 203.553 833.252 206.397C828.599 209.24 824.85 213.053 822.007 217.836C819.293 222.618 817.936 227.917 817.936 233.734C817.936 239.55 819.293 244.849 822.007 249.632C824.85 254.414 828.599 258.227 833.252 261.07C837.905 263.914 843.075 265.336 848.762 265.336Z" fill="white"/>
<path d="M979.386 294.999C968.658 294.999 958.9 292.221 950.11 286.663C941.321 281.105 934.277 273.738 928.978 264.561C923.808 255.255 921.223 244.979 921.223 233.734C921.223 222.489 923.808 212.214 928.978 202.908C934.277 193.601 941.321 186.234 950.11 180.805C958.9 175.248 968.658 172.469 979.386 172.469C986.883 172.469 993.733 173.826 999.937 176.54C1006.14 179.125 1011.44 182.744 1015.83 187.397V175.571H1044.92V291.897H1015.83V280.071C1011.44 284.724 1006.14 288.408 999.937 291.122C993.733 293.707 986.883 294.999 979.386 294.999ZM983.457 265.336C989.144 265.336 994.315 263.914 998.968 261.071C1003.62 258.227 1007.3 254.414 1010.02 249.632C1012.86 244.85 1014.28 239.55 1014.28 233.734C1014.28 227.918 1012.86 222.618 1010.02 217.836C1007.3 213.054 1003.62 209.241 998.968 206.397C994.315 203.554 989.144 202.132 983.457 202.132C977.77 202.132 972.6 203.554 967.947 206.397C963.294 209.241 959.546 213.054 956.702 217.836C953.988 222.618 952.631 227.918 952.631 233.734C952.631 239.55 953.988 244.85 956.702 249.632C959.546 254.414 963.294 258.227 967.947 261.071C972.6 263.914 977.77 265.336 983.457 265.336Z" fill="white"/>
<path d="M1117.2 295C1108.02 295 1100.69 293.667 1095.22 291.003C1089.74 288.19 1085.6 284.712 1082.78 280.567C1079.97 276.274 1078.12 271.759 1077.23 267.022C1076.34 262.285 1075.9 257.918 1075.9 253.921V201.963H1055.92V175.096H1075.9V146.008H1109.65V175.096H1134.74V201.963H1109.65V253.033C1109.65 257.918 1110.91 261.693 1113.43 264.358C1116.09 267.022 1120.46 268.354 1126.53 268.354C1129.19 268.354 1131.63 268.132 1133.85 267.688C1136.07 267.244 1137.18 267.022 1137.18 267.022V293.001C1137.18 293.001 1135.19 293.297 1131.19 293.889C1127.19 294.63 1122.53 295 1117.2 295Z" fill="white"/>
<path d="M1209.47 295C1200.29 295 1192.96 293.667 1187.49 291.003C1182.01 288.19 1177.86 284.712 1175.05 280.567C1172.24 276.274 1170.39 271.759 1169.5 267.022C1168.61 262.285 1168.17 257.918 1168.17 253.921V201.963H1148.18V175.096H1168.17V146.008H1201.92V175.096H1227.01V201.963H1201.92V253.033C1201.92 257.918 1203.18 261.693 1205.69 264.358C1208.36 267.022 1212.72 268.354 1218.79 268.354C1221.46 268.354 1223.9 268.132 1226.12 267.688C1228.34 267.244 1229.45 267.022 1229.45 267.022V293.001C1229.45 293.001 1227.45 293.297 1223.46 293.889C1219.46 294.63 1214.8 295 1209.47 295Z" fill="white"/>
<path d="M1295.62 294.999C1284.89 294.999 1275.13 292.221 1266.34 286.663C1257.55 281.105 1250.51 273.738 1245.21 264.561C1240.04 255.255 1237.45 244.979 1237.45 233.734C1237.45 222.489 1240.04 212.214 1245.21 202.908C1250.51 193.601 1257.55 186.234 1266.34 180.805C1275.13 175.248 1284.89 172.469 1295.62 172.469C1303.11 172.469 1309.96 173.826 1316.17 176.54C1322.37 179.125 1327.67 182.744 1332.07 187.397V175.571H1361.15V291.897H1332.07V280.071C1327.67 284.724 1322.37 288.408 1316.17 291.122C1309.96 293.707 1303.11 294.999 1295.62 294.999ZM1299.69 265.336C1305.37 265.336 1310.54 263.914 1315.2 261.071C1319.85 258.227 1323.53 254.414 1326.25 249.632C1329.09 244.85 1330.51 239.55 1330.51 233.734C1330.51 227.918 1329.09 222.618 1326.25 217.836C1323.53 213.054 1319.85 209.241 1315.2 206.397C1310.54 203.554 1305.37 202.132 1299.69 202.132C1294 202.132 1288.83 203.554 1284.18 206.397C1279.52 209.241 1275.78 213.054 1272.93 217.836C1270.22 222.618 1268.86 227.918 1268.86 233.734C1268.86 239.55 1270.22 244.85 1272.93 249.632C1275.78 254.414 1279.52 258.227 1284.18 261.071C1288.83 263.914 1294 265.336 1299.69 265.336Z" fill="white"/>
<defs>
<clipPath id="clip0_2624_1146">
<rect width="400" height="400" fill="white"/>
</clipPath>
</defs>
</svg>
