<svg width="902" height="190" viewBox="0 0 902 190" fill="none" xmlns="http://www.w3.org/2000/svg">
<path d="M92.9039 189.999C76.6394 189.999 62.6749 187.206 51.0105 181.621C39.346 175.87 29.8173 168.395 22.4243 159.195C15.0314 149.831 9.5277 139.809 5.91336 129.131C2.46331 118.287 0.738281 107.773 0.738281 97.5872V92.1657C0.738281 80.9941 2.54545 69.9868 6.15979 59.1437C9.77413 48.1364 15.2778 38.197 22.6707 29.3254C30.228 20.4539 39.6746 13.3895 51.0105 8.13226C62.5106 2.71075 76.0644 0 91.6718 0C107.936 0 122.312 3.03933 134.797 9.11799C147.283 15.1967 157.223 23.6575 164.616 34.5005C172.173 45.1792 176.609 57.7473 177.923 72.2047H137.262C136.112 64.976 133.483 58.8152 129.376 53.7222C125.269 48.6293 119.929 44.6864 113.358 41.8935C106.951 39.1006 99.7219 37.7041 91.6718 37.7041C83.6217 37.7041 76.4751 39.1006 70.2322 41.8935C63.9892 44.6864 58.732 48.6293 54.4605 53.7222C50.3533 58.8152 47.1497 64.8938 44.8497 71.9582C42.7139 78.8583 41.646 86.5799 41.646 95.1229C41.646 103.502 42.7139 111.223 44.8497 118.287C47.1497 125.188 50.4355 131.266 54.7069 136.523C59.1427 141.616 64.5642 145.559 70.9715 148.352C77.3787 150.981 84.6895 152.295 92.9039 152.295C105.39 152.295 115.904 149.256 124.447 143.177C133.155 137.098 138.412 128.72 140.219 118.041H180.634C179.155 131.184 174.719 143.259 167.326 154.267C160.098 165.11 150.158 173.817 137.508 180.388C125.022 186.796 110.154 189.999 92.9039 189.999Z" fill="white"/>
<path d="M253.451 190C241.948 190 231.414 187.221 221.849 181.663C212.284 176.105 204.659 168.609 198.972 159.173C193.414 149.738 190.635 139.333 190.635 127.959C190.635 116.455 193.414 106.051 198.972 96.7445C204.659 87.3091 212.284 79.8125 221.849 74.2547C231.414 68.6969 241.948 65.918 253.451 65.918C265.084 65.918 275.618 68.6969 285.053 74.2547C294.618 79.8125 302.179 87.3091 307.737 96.7445C313.424 106.051 316.268 116.455 316.268 127.959C316.268 139.333 313.424 149.738 307.737 159.173C302.179 168.609 294.618 176.105 285.053 181.663C275.618 187.221 265.084 190 253.451 190ZM253.451 159.755C259.267 159.755 264.502 158.333 269.155 155.489C273.938 152.646 277.686 148.833 280.4 144.051C283.244 139.139 284.665 133.775 284.665 127.959C284.665 122.013 283.244 116.649 280.4 111.867C277.686 107.085 273.938 103.272 269.155 100.428C264.502 97.5847 259.267 96.1629 253.451 96.1629C247.635 96.1629 242.335 97.5847 237.553 100.428C232.9 103.272 229.152 107.085 226.308 111.867C223.594 116.649 222.237 122.013 222.237 127.959C222.237 133.775 223.594 139.139 226.308 144.051C229.152 148.833 232.9 152.646 237.553 155.489C242.335 158.333 247.635 159.755 253.451 159.755Z" fill="white"/>
<path d="M385.623 189.999C374.766 189.999 364.943 187.22 356.153 181.662C347.364 176.104 340.32 168.737 335.021 159.56C329.851 150.254 327.266 139.979 327.266 128.734C327.266 117.489 329.851 107.213 335.021 97.9071C340.32 88.601 347.364 81.2336 356.153 75.8051C364.943 70.2472 374.766 67.4683 385.623 67.4683C391.827 67.4683 397.579 68.3731 402.878 70.1826C408.177 71.9921 412.96 74.5772 417.225 77.9377V0.774414H450.96V186.897H421.878V175.458C417.483 179.982 412.184 183.536 405.98 186.121C399.776 188.707 392.99 189.999 385.623 189.999ZM389.5 160.336C395.187 160.336 400.357 158.914 405.011 156.07C409.664 153.227 413.347 149.414 416.062 144.632C418.905 139.849 420.327 134.55 420.327 128.734C420.327 122.917 418.905 117.618 416.062 112.836C413.347 108.053 409.664 104.24 405.011 101.397C400.357 98.5534 395.187 97.1316 389.5 97.1316C383.813 97.1316 378.643 98.5534 373.99 101.397C369.337 104.24 365.589 108.053 362.745 112.836C360.031 117.618 358.674 122.917 358.674 128.734C358.674 134.55 360.031 139.849 362.745 144.632C365.589 149.414 369.337 153.227 373.99 156.07C378.643 158.914 383.813 160.336 389.5 160.336Z" fill="white"/>
<path d="M520.124 189.999C509.396 189.999 499.638 187.221 490.849 181.663C482.06 176.105 475.015 168.738 469.716 159.561C464.546 150.255 461.961 139.979 461.961 128.734C461.961 117.489 464.546 107.214 469.716 97.9075C475.015 88.6014 482.06 81.2341 490.849 75.8055C499.638 70.2477 509.396 67.4688 520.124 67.4688C527.621 67.4688 534.471 68.8259 540.675 71.5402C546.879 74.1252 552.179 77.7443 556.573 82.3973V70.5708H585.655V186.897H556.573V175.071C552.179 179.724 546.879 183.408 540.675 186.122C534.471 188.707 527.621 189.999 520.124 189.999ZM524.196 160.336C529.883 160.336 535.053 158.914 539.706 156.071C544.359 153.227 548.043 149.414 550.757 144.632C553.6 139.85 555.022 134.55 555.022 128.734C555.022 122.918 553.6 117.618 550.757 112.836C548.043 108.054 544.359 104.241 539.706 101.397C535.053 98.5538 529.883 97.132 524.196 97.132C518.509 97.132 513.339 98.5538 508.685 101.397C504.032 104.241 500.284 108.054 497.441 112.836C494.726 117.618 493.369 122.918 493.369 128.734C493.369 134.55 494.726 139.85 497.441 144.632C500.284 149.414 504.032 153.227 508.685 156.071C513.339 158.914 518.509 160.336 524.196 160.336Z" fill="white"/>
<path d="M657.939 190C648.761 190 641.433 188.667 635.956 186.003C630.479 183.19 626.334 179.712 623.522 175.567C620.709 171.274 618.859 166.759 617.971 162.022C617.082 157.285 616.638 152.918 616.638 148.921V96.963H596.654V70.0956H616.638V41.0078H650.389V70.0956H675.48V96.963H650.389V148.033C650.389 152.918 651.647 156.693 654.164 159.358C656.828 162.022 661.195 163.354 667.264 163.354C669.929 163.354 672.371 163.132 674.592 162.688C676.812 162.244 677.923 162.022 677.923 162.022V188.001C677.923 188.001 675.924 188.297 671.927 188.889C667.931 189.63 663.268 190 657.939 190Z" fill="white"/>
<path d="M750.206 190C741.028 190 733.701 188.667 728.224 186.003C722.747 183.19 718.602 179.712 715.789 175.567C712.977 171.274 711.126 166.759 710.238 162.022C709.35 157.285 708.906 152.918 708.906 148.921V96.963H688.922V70.0956H708.906V41.0078H742.657V70.0956H767.748V96.963H742.657V148.033C742.657 152.918 743.915 156.693 746.431 159.358C749.096 162.022 753.463 163.354 759.532 163.354C762.197 163.354 764.639 163.132 766.859 162.688C769.08 162.244 770.19 162.022 770.19 162.022V188.001C770.19 188.001 768.192 188.297 764.195 188.889C760.198 189.63 755.535 190 750.206 190Z" fill="white"/>
<path d="M836.355 189.999C825.627 189.999 815.868 187.221 807.079 181.663C798.29 176.105 791.246 168.738 785.946 159.561C780.776 150.255 778.191 139.979 778.191 128.734C778.191 117.489 780.776 107.214 785.946 97.9075C791.246 88.6014 798.29 81.2341 807.079 75.8055C815.868 70.2477 825.627 67.4688 836.355 67.4688C843.851 67.4688 850.702 68.8259 856.906 71.5402C863.11 74.1252 868.409 77.7443 872.804 82.3973V70.5708H901.885V186.897H872.804V175.071C868.409 179.724 863.11 183.408 856.906 186.122C850.702 188.707 843.851 189.999 836.355 189.999ZM840.426 160.336C846.113 160.336 851.283 158.914 855.936 156.071C860.589 153.227 864.273 149.414 866.987 144.632C869.831 139.85 871.253 134.55 871.253 128.734C871.253 122.918 869.831 117.618 866.987 112.836C864.273 108.054 860.589 104.241 855.936 101.397C851.283 98.5538 846.113 97.132 840.426 97.132C834.739 97.132 829.569 98.5538 824.916 101.397C820.263 104.241 816.515 108.054 813.671 112.836C810.957 117.618 809.6 122.918 809.6 128.734C809.6 134.55 810.957 139.85 813.671 144.632C816.515 149.414 820.263 153.227 824.916 156.071C829.569 158.914 834.739 160.336 840.426 160.336Z" fill="white"/>
</svg>
