<svg width="184" height="46" viewBox="0 0 184 46" fill="none" xmlns="http://www.w3.org/2000/svg">
<g clip-path="url(#clip0_18_230)">
<path fill-rule="evenodd" clip-rule="evenodd" d="M73.5443 45.3618L73.4439 41.2125V41.1805C72.145 42.478 70.6403 43.5369 68.9855 44.2979C67.0729 45.1778 65.0077 45.6367 62.9123 45.6367C60.8156 45.6367 58.7505 45.1778 56.8378 44.2979C54.9264 43.4184 53.2135 42.1408 51.7875 40.5572C51.3614 40.0832 50.962 39.5843 50.5927 39.0637C50.1521 39.6332 49.6752 40.1752 49.1643 40.6862C47.5943 42.2557 45.7301 43.5007 43.6782 44.3502C41.6264 45.1996 39.4268 45.6367 37.2055 45.6367C34.9854 45.6367 32.7859 45.1996 30.7341 44.3502C29.6252 43.8913 28.5721 43.3171 27.5903 42.6386C25.6075 43.9554 23.3607 44.8688 20.9893 45.3179C17.6095 45.9579 14.1038 45.6307 10.9105 44.3716C7.7159 43.1122 4.95953 40.9689 3.00816 38.1882C1.05437 35.4054 0 32.115 0 28.7343C0 25.3535 1.05437 22.0632 3.00816 19.2803C4.95953 16.4996 7.7159 14.3564 10.9105 13.0969C14.1038 11.8379 17.6095 11.5107 20.9893 12.1507C23.3607 12.5996 25.6075 13.5131 27.5903 14.8299C28.5721 14.1514 29.6252 13.5771 30.7341 13.1184C32.7859 12.2689 34.9854 11.8318 37.2055 11.8318C39.4268 11.8318 41.6264 12.2689 43.6782 13.1184C45.7301 13.9678 47.5943 15.2128 49.1643 16.7824C49.6752 17.2933 50.1521 17.8353 50.5927 18.4048C50.962 17.8841 51.3614 17.3853 51.7875 16.9113C53.2135 15.3277 54.9264 14.05 56.8378 13.1706C58.7505 12.2907 60.8156 11.8318 62.9123 11.8318C65.0077 11.8318 67.0729 12.2907 68.9855 13.1706C70.5785 13.9035 72.0336 14.9127 73.2998 16.1453V0H80.8438V22.7026C81.1065 21.9412 81.4212 21.2067 81.7868 20.4993C83.0942 17.9655 84.8736 15.9835 87.1228 14.5532C89.3707 13.123 91.9068 12.4078 94.7273 12.4078C96.3627 12.4078 97.8553 12.6529 99.2051 13.1433C100.555 13.5929 101.74 14.2467 102.763 15.1049C103.661 15.8593 104.418 16.7085 105.031 17.6525V13.082H112.637V45.387H104.971V40.8533C104.264 41.7765 103.385 42.6134 102.333 43.3641C101.229 44.1405 99.9822 44.774 98.5913 45.2644C97.2428 45.7547 95.7902 46 94.2371 46C91.5787 46 89.1662 45.2644 86.9993 43.7932C84.8325 42.3221 83.0942 40.3196 81.7868 37.7859C81.4212 37.0784 81.1065 36.344 80.8438 35.5826V45.3618H73.5443ZM96.3228 39.3184C98.0805 39.3184 99.6348 38.8892 100.983 38.031C102.333 37.1728 103.375 35.9877 104.111 34.4757C104.888 32.9227 105.277 31.145 105.277 29.1426C105.277 27.181 104.888 25.4442 104.111 23.9321C103.375 22.42 102.333 21.2349 100.983 20.3767C99.6348 19.5185 98.0805 19.0894 96.3228 19.0894C94.5639 19.0894 93.0108 19.5185 91.6611 20.3767C90.3525 21.2349 89.3308 22.42 88.5948 23.9321C87.8588 25.4442 87.4908 27.181 87.4908 29.1426C87.4908 31.145 87.8588 32.9227 88.5948 34.4757C89.3308 35.9877 90.3525 37.1728 91.6611 38.031C93.0108 38.8892 94.5639 39.3184 96.3228 39.3184ZM46.581 24.8533C47.0907 26.0837 47.3534 27.4024 47.3534 28.7343C47.3534 30.0661 47.0907 31.3848 46.581 32.6152C46.0702 33.8457 45.3233 34.9636 44.3815 35.9054C43.4385 36.8471 42.32 37.5941 41.0889 38.1037C39.8578 38.6135 38.5383 38.8758 37.2055 38.8758C35.8739 38.8758 34.5545 38.6135 33.3234 38.1037C32.0923 37.5941 30.9725 36.8471 30.0307 35.9054C29.0889 34.9636 28.3408 33.8457 27.8312 32.6152C27.3216 31.3848 27.0589 30.0661 27.0589 28.7343C27.0589 27.4024 27.3216 26.0837 27.8312 24.8533C28.3408 23.6228 29.0889 22.5049 30.0307 21.5631C30.9725 20.6214 32.0923 19.8744 33.3234 19.3647C34.5545 18.855 35.8739 18.5927 37.2055 18.5927C38.5383 18.5927 39.8578 18.855 41.0889 19.3647C42.32 19.8744 43.4385 20.6214 44.3815 21.5631C45.3233 22.5049 46.0702 23.6228 46.581 24.8533ZM22.816 37.6135C21.8597 38.1081 20.8198 38.4686 19.7304 38.675C17.5986 39.0786 15.3918 38.8701 13.3933 38.0823C11.3959 37.2949 9.71568 35.9718 8.5451 34.3051C7.37695 32.6408 6.76442 30.7022 6.76442 28.7343C6.76442 26.7662 7.37695 24.8278 8.5451 23.1634C9.71568 21.4966 11.3959 20.1737 13.3933 19.3862C15.3918 18.5984 17.5986 18.39 19.7304 18.7935C20.8198 18.9999 21.8597 19.3604 22.816 19.8549C22.3415 20.6225 21.9287 21.4286 21.5813 22.2659C20.7315 24.3167 20.2945 26.5146 20.2945 28.7343C20.2945 30.9539 20.7315 33.1518 21.5813 35.2026C21.9287 36.0399 22.3415 36.8459 22.816 37.6135ZM62.9123 18.5927C61.8095 18.5927 60.7079 18.8332 59.6656 19.3124C58.6234 19.7921 57.6513 20.5066 56.8161 21.4342C55.9796 22.3624 55.3005 23.4832 54.832 24.7405C54.3623 25.9977 54.1178 27.3558 54.1178 28.7343C54.1178 30.1127 54.3623 31.4707 54.832 32.728C55.3005 33.9853 55.9796 35.106 56.8161 36.0343C57.6513 36.9619 58.6234 37.6763 59.6656 38.156C60.7079 38.6352 61.8095 38.8758 62.9123 38.8758C64.0138 38.8758 65.1154 38.6352 66.1577 38.156C67.1999 37.6763 68.172 36.9619 69.0073 36.0343C69.8437 35.106 70.5228 33.9853 70.9925 32.728C71.461 31.4707 71.7055 30.1127 71.7055 28.7343C71.7055 27.3558 71.461 25.9977 70.9925 24.7405C70.5228 23.4832 69.8437 22.3624 69.0073 21.4342C68.172 20.5066 67.1999 19.7921 66.1577 19.3124C65.1154 18.8332 64.0138 18.5927 62.9123 18.5927Z" fill="black"/>
<path d="M120.33 20.0704V45.3872H127.874V20.0704H137.528V45.3872H145.072V20.0704H152.126V13.0822H145.072V4.86804H137.528V13.0822H127.874V4.86804H120.33V13.0822H113.95V20.0704H120.33Z" fill="black"/>
<path fill-rule="evenodd" clip-rule="evenodd" d="M165.266 46C162.609 46 160.196 45.2644 158.029 43.7932C155.861 42.3221 154.124 40.3196 152.816 37.7859C151.507 35.2521 150.853 32.3711 150.853 29.1426C150.853 25.9141 151.507 23.0331 152.816 20.4993C154.124 17.9655 155.903 15.9835 158.152 14.5532C160.401 13.123 162.936 12.4078 165.757 12.4078C167.393 12.4078 168.885 12.6529 170.234 13.1433C171.584 13.5929 172.77 14.2467 173.792 15.1049C174.69 15.8593 175.446 16.7085 176.061 17.6525V13.082H183.666V45.387H176V40.8533C175.293 41.7765 174.414 42.6134 173.362 43.3641C172.258 44.1406 171.011 44.774 169.621 45.2644C168.272 45.7548 166.82 46 165.266 46ZM167.352 39.3184C169.109 39.3184 170.664 38.8893 172.013 38.031C173.362 37.1728 174.405 35.9877 175.141 34.4757C175.917 32.9227 176.306 31.145 176.306 29.1426C176.306 27.181 175.917 25.4442 175.141 23.9321C174.405 22.42 173.362 21.2349 172.013 20.3767C170.664 19.5185 169.109 19.0894 167.352 19.0894C165.594 19.0894 164.04 19.5185 162.69 20.3767C161.381 21.2349 160.36 22.42 159.624 23.9321C158.888 25.4442 158.52 27.181 158.52 29.1426C158.52 31.145 158.888 32.9227 159.624 34.4757C160.36 35.9877 161.381 37.1728 162.69 38.031C164.04 38.8893 165.594 39.3184 167.352 39.3184Z" fill="black"/>
</g>
<defs>
<clipPath id="clip0_18_230">
<rect width="184" height="46" fill="white"/>
</clipPath>
</defs>
</svg>
