<svg width="184" height="51" viewBox="0 0 184 51" fill="none" xmlns="http://www.w3.org/2000/svg">
<path fill-rule="evenodd" clip-rule="evenodd" d="M73.5443 48.3618L73.4439 44.2125V44.1805C72.145 45.478 70.6403 46.5369 68.9855 47.2979C67.0729 48.1778 65.0077 48.6367 62.9123 48.6367C60.8156 48.6367 58.7505 48.1778 56.8378 47.2979C54.9264 46.4184 53.2135 45.1408 51.7875 43.5572C51.3614 43.0832 50.962 42.5843 50.5927 42.0637C50.1521 42.6332 49.6752 43.1752 49.1643 43.6862C47.5943 45.2557 45.7301 46.5007 43.6782 47.3502C41.6264 48.1996 39.4268 48.6367 37.2055 48.6367C34.9854 48.6367 32.7859 48.1996 30.7341 47.3502C29.6252 46.8913 28.5721 46.3171 27.5903 45.6386C25.6075 46.9554 23.3607 47.8688 20.9893 48.3179C17.6095 48.9579 14.1038 48.6307 10.9105 47.3716C7.7159 46.1122 4.95953 43.9689 3.00816 41.1882C1.05437 38.4054 0 35.115 0 31.7343C0 28.3535 1.05437 25.0632 3.00816 22.2803C4.95953 19.4996 7.7159 17.3564 10.9105 16.0969C14.1038 14.8379 17.6095 14.5107 20.9893 15.1507C23.3607 15.5996 25.6075 16.5131 27.5903 17.8299C28.5721 17.1514 29.6252 16.5771 30.7341 16.1184C32.7859 15.2689 34.9854 14.8318 37.2055 14.8318C39.4268 14.8318 41.6264 15.2689 43.6782 16.1184C45.7301 16.9678 47.5943 18.2128 49.1643 19.7824C49.6752 20.2933 50.1521 20.8353 50.5927 21.4048C50.962 20.8841 51.3614 20.3853 51.7875 19.9113C53.2135 18.3277 54.9264 17.05 56.8378 16.1706C58.7505 15.2907 60.8156 14.8318 62.9123 14.8318C65.0077 14.8318 67.0729 15.2907 68.9855 16.1706C70.5785 16.9035 72.0336 17.9127 73.2998 19.1453V3H80.8438V25.7026C81.1065 24.9412 81.4212 24.2067 81.7868 23.4993C83.0942 20.9655 84.8736 18.9835 87.1228 17.5532C89.3707 16.123 91.9068 15.4078 94.7273 15.4078C96.3627 15.4078 97.8553 15.6529 99.2051 16.1433C100.555 16.5929 101.74 17.2467 102.763 18.1049C103.661 18.8593 104.418 19.7085 105.031 20.6525V16.082H112.637V48.387H104.971V43.8533C104.264 44.7765 103.385 45.6134 102.333 46.3641C101.229 47.1405 99.9822 47.774 98.5913 48.2644C97.2428 48.7547 95.7902 49 94.2371 49C91.5787 49 89.1662 48.2644 86.9993 46.7932C84.8325 45.3221 83.0942 43.3196 81.7868 40.7859C81.4212 40.0784 81.1065 39.344 80.8438 38.5826V48.3618H73.5443ZM96.3228 42.3184C98.0805 42.3184 99.6348 41.8892 100.983 41.031C102.333 40.1728 103.375 38.9877 104.111 37.4757C104.888 35.9227 105.277 34.145 105.277 32.1426C105.277 30.181 104.888 28.4442 104.111 26.9321C103.375 25.42 102.333 24.2349 100.983 23.3767C99.6348 22.5185 98.0805 22.0894 96.3228 22.0894C94.5639 22.0894 93.0108 22.5185 91.6611 23.3767C90.3525 24.2349 89.3308 25.42 88.5948 26.9321C87.8588 28.4442 87.4908 30.181 87.4908 32.1426C87.4908 34.145 87.8588 35.9227 88.5948 37.4757C89.3308 38.9877 90.3525 40.1728 91.6611 41.031C93.0108 41.8892 94.5639 42.3184 96.3228 42.3184ZM46.581 27.8533C47.0907 29.0837 47.3534 30.4024 47.3534 31.7343C47.3534 33.0661 47.0907 34.3848 46.581 35.6152C46.0702 36.8457 45.3233 37.9636 44.3815 38.9054C43.4385 39.8471 42.32 40.5941 41.0889 41.1037C39.8578 41.6135 38.5383 41.8758 37.2055 41.8758C35.8739 41.8758 34.5545 41.6135 33.3234 41.1037C32.0923 40.5941 30.9725 39.8471 30.0307 38.9054C29.0889 37.9636 28.3408 36.8457 27.8312 35.6152C27.3216 34.3848 27.0589 33.0661 27.0589 31.7343C27.0589 30.4024 27.3216 29.0837 27.8312 27.8533C28.3408 26.6228 29.0889 25.5049 30.0307 24.5631C30.9725 23.6214 32.0923 22.8744 33.3234 22.3647C34.5545 21.855 35.8739 21.5927 37.2055 21.5927C38.5383 21.5927 39.8578 21.855 41.0889 22.3647C42.32 22.8744 43.4385 23.6214 44.3815 24.5631C45.3233 25.5049 46.0702 26.6228 46.581 27.8533ZM22.816 40.6135C21.8597 41.1081 20.8198 41.4686 19.7304 41.675C17.5986 42.0786 15.3918 41.8701 13.3933 41.0823C11.3959 40.2949 9.71568 38.9718 8.5451 37.3051C7.37695 35.6408 6.76442 33.7022 6.76442 31.7343C6.76442 29.7662 7.37695 27.8278 8.5451 26.1634C9.71568 24.4966 11.3959 23.1737 13.3933 22.3862C15.3918 21.5984 17.5986 21.39 19.7304 21.7935C20.8198 21.9999 21.8597 22.3604 22.816 22.8549C22.3415 23.6225 21.9287 24.4286 21.5813 25.2659C20.7315 27.3167 20.2945 29.5146 20.2945 31.7343C20.2945 33.9539 20.7315 36.1518 21.5813 38.2026C21.9287 39.0399 22.3415 39.8459 22.816 40.6135ZM62.9123 21.5927C61.8095 21.5927 60.7079 21.8332 59.6656 22.3124C58.6234 22.7921 57.6513 23.5066 56.8161 24.4342C55.9796 25.3624 55.3005 26.4832 54.832 27.7405C54.3623 28.9977 54.1178 30.3558 54.1178 31.7343C54.1178 33.1127 54.3623 34.4707 54.832 35.728C55.3005 36.9853 55.9796 38.106 56.8161 39.0343C57.6513 39.9619 58.6234 40.6763 59.6656 41.156C60.7079 41.6352 61.8095 41.8758 62.9123 41.8758C64.0138 41.8758 65.1154 41.6352 66.1577 41.156C67.1999 40.6763 68.172 39.9619 69.0073 39.0343C69.8437 38.106 70.5228 36.9853 70.9925 35.728C71.461 34.4707 71.7055 33.1127 71.7055 31.7343C71.7055 30.3558 71.461 28.9977 70.9925 27.7405C70.5228 26.4832 69.8437 25.3624 69.0073 24.4342C68.172 23.5066 67.1999 22.7921 66.1577 22.3124C65.1154 21.8332 64.0138 21.5927 62.9123 21.5927Z" fill="white"/>
<path d="M120.33 23.0704V48.3872H127.874V23.0704H137.528V48.3872H145.072V23.0704H152.126V16.0821H145.072V7.86803H137.528V16.0821H127.874V7.86803H120.33V16.0821H113.95V23.0704H120.33Z" fill="white"/>
<path fill-rule="evenodd" clip-rule="evenodd" d="M165.266 49C162.609 49 160.196 48.2644 158.029 46.7932C155.861 45.3221 154.124 43.3196 152.816 40.7859C151.507 38.2521 150.853 35.3711 150.853 32.1426C150.853 28.9141 151.507 26.0331 152.816 23.4993C154.124 20.9655 155.903 18.9835 158.152 17.5532C160.401 16.123 162.936 15.4078 165.757 15.4078C167.393 15.4078 168.885 15.6529 170.234 16.1433C171.584 16.5929 172.77 17.2467 173.792 18.1049C174.69 18.8593 175.446 19.7085 176.061 20.6525V16.082H183.666V48.387H176V43.8533C175.293 44.7765 174.414 45.6134 173.362 46.3641C172.258 47.1406 171.011 47.774 169.621 48.2644C168.272 48.7548 166.82 49 165.266 49ZM167.352 42.3184C169.109 42.3184 170.664 41.8893 172.013 41.031C173.362 40.1728 174.405 38.9877 175.141 37.4757C175.917 35.9227 176.306 34.145 176.306 32.1426C176.306 30.181 175.917 28.4442 175.141 26.9321C174.405 25.42 173.362 24.2349 172.013 23.3767C170.664 22.5185 169.109 22.0894 167.352 22.0894C165.594 22.0894 164.04 22.5185 162.69 23.3767C161.381 24.2349 160.36 25.42 159.624 26.9321C158.888 28.4442 158.52 30.181 158.52 32.1426C158.52 34.145 158.888 35.9227 159.624 37.4757C160.36 38.9877 161.381 40.1728 162.69 41.031C164.04 41.8893 165.594 42.3184 167.352 42.3184Z" fill="white"/>
</svg>
