<svg width="120" height="120" viewBox="0 0 120 120" fill="none" xmlns="http://www.w3.org/2000/svg">
<rect width="120" height="120" fill="white"/>
<g clip-path="url(#clip0_18_250)">
<g style="mix-blend-mode:hard-light">
<path fill-rule="evenodd" clip-rule="evenodd" d="M43 44.2553C38.8235 44.2553 34.8201 45.9123 31.8662 48.8662C28.9123 51.8201 27.2553 55.8235 27.2553 60C27.2553 64.1765 28.9123 68.1799 31.8662 71.1338C34.8201 74.0877 38.8235 75.7447 43 75.7447H44.9111C40.2446 72.0837 37.247 66.3925 37.247 60C37.247 53.6075 40.2446 47.9163 44.9111 44.2553H43ZM57.4681 40.0012V40H57.247H43C37.6957 40 32.6097 42.1047 28.8572 45.8572C25.1047 49.6097 23 54.6957 23 60C23 65.3043 25.1047 70.3903 28.8572 74.1428C32.6097 77.8952 37.6957 80 43 80H57.247H57.4681V79.9988C60.023 79.9711 62.4628 79.4647 64.7021 78.5649V80H77.0426C82.3469 80 87.4329 77.8952 91.1854 74.1428C94.9378 70.3903 97.0426 65.3043 97.0426 60C97.0426 54.6957 94.9378 49.6097 91.1854 45.8572C87.4329 42.1047 82.3469 40 77.0426 40H64.7021V41.4352C62.4628 40.5353 60.023 40.0289 57.4681 40.0012ZM64.7021 46.128C62.4831 44.9332 59.9444 44.2553 57.247 44.2553C48.5497 44.2553 41.5023 51.3027 41.5023 60C41.5023 68.6973 48.5497 75.7447 57.247 75.7447C59.9444 75.7447 62.4831 75.0668 64.7021 73.872V46.128ZM68.9574 70.5259V49.4741C71.4656 52.2629 72.9917 55.9529 72.9917 60C72.9917 64.0471 71.4656 67.7371 68.9574 70.5259ZM69.5829 75.7447C74.2494 72.0837 77.247 66.3925 77.247 60C77.247 53.6075 74.2494 47.9163 69.5829 44.2553H77.0426C81.2191 44.2553 85.2225 45.9123 88.1763 48.8662C91.1303 51.8201 92.7872 55.8235 92.7872 60C92.7872 64.1765 91.1303 68.1799 88.1763 71.1338C85.2225 74.0877 81.2191 75.7447 77.0426 75.7447H69.5829Z" fill="black"/>
</g>
</g>
<defs>
<clipPath id="clip0_18_250">
<rect width="74.7826" height="40" fill="white" transform="translate(23 40)"/>
</clipPath>
</defs>
</svg>
